<?xml version="1.0" encoding="UTF-8" standalone="no"?>
<!-- Created with Inkscape (http://www.inkscape.org/) -->

<svg
   width="264.58334mm"
   height="57.539391mm"
   viewBox="0 0 264.58334 57.539391"
   version="1.1"
   id="svg1"
   xml:space="preserve"
   inkscape:version="1.3 (0e150ed6c4, 2023-07-21)"
   sodipodi:docname="Astro Gaming 2006.svg"
   xmlns:inkscape="http://www.inkscape.org/namespaces/inkscape"
   xmlns:sodipodi="http://sodipodi.sourceforge.net/DTD/sodipodi-0.dtd"
   xmlns="http://www.w3.org/2000/svg"
   xmlns:svg="http://www.w3.org/2000/svg"><sodipodi:namedview
     id="namedview1"
     pagecolor="#ffffff"
     bordercolor="#000000"
     borderopacity="0.25"
     inkscape:showpageshadow="2"
     inkscape:pageopacity="0.0"
     inkscape:pagecheckerboard="0"
     inkscape:deskcolor="#d1d1d1"
     inkscape:document-units="mm"
     inkscape:zoom="0.35355339"
     inkscape:cx="677.40829"
     inkscape:cy="456.79098"
     inkscape:window-width="1920"
     inkscape:window-height="991"
     inkscape:window-x="-9"
     inkscape:window-y="-9"
     inkscape:window-maximized="1"
     inkscape:current-layer="layer1" /><defs
     id="defs1" /><g
     inkscape:label="Katman 1"
     inkscape:groupmode="layer"
     id="layer1"
     transform="translate(-14.106011,-118.08012)"><path
       sodipodi:type="star"
       style="display:inline;fill:#e35210;fill-opacity:1;stroke-width:6.00001;paint-order:markers stroke fill"
       id="path1"
       inkscape:flatsided="false"
       sodipodi:sides="5"
       sodipodi:cx="231.38017"
       sodipodi:cy="42.904934"
       sodipodi:r1="31.054413"
       sodipodi:r2="13.885559"
       sodipodi:arg1="-1.3089969"
       sodipodi:arg2="-0.67972436"
       inkscape:rounded="0"
       inkscape:randomized="0"
       d="m 239.41765,12.908675 2.76196,21.268093 20.21242,7.102905 -19.37367,9.198985 -0.50928,21.418068 -14.73555,-15.582807 -20.52717,6.134189 10.2666,-18.82969 -12.17721,-17.626931 21.08065,3.945419 z"
       transform="matrix(0.34199855,-0.09163823,0.09163823,0.34199855,-6.8744282,135.60518)"
       inkscape:transform-center-x="2.5460766"
       inkscape:transform-center-y="-1.6567226" /><path
       id="rect1"
       style="display:inline;fill:#2b2422;fill-opacity:1;stroke-width:6.08172;paint-order:markers stroke fill"
       d="m 45.446734,140.35189 v 0.0894 H 31.695118 c -9.744262,0 -17.589107,7.84485 -17.589107,17.58911 v 17.58911 h 17.589107 1.026811 c 6.68951,-0.87112 8.987067,-2.70995 13.176457,-6.89932 4.189389,-4.18941 12.03389,-12.0618 12.03389,-12.0618 v 17.0372 1.92392 h 9.637138 v -17.58911 -0.0894 -1.28261 -16.3065 z m -12.724805,35.26762 h 3.506763 13.751615 c 0.0669,0 0.132752,-0.004 0.199471,-0.005 z M 31.40418,149.95234 h 19.781221 c -4.389457,4.56175 -8.959977,8.94756 -13.429671,13.42967 -1.081136,1.35142 -3.885042,2.82102 -4.864819,2.82102 h -9.325012 v -7.83828 -0.57465 c 0,-4.34235 3.49591,-7.83776 7.838281,-7.83776 z" /><path
       style="fill:#2b2422;fill-opacity:1;stroke-width:6.00001;paint-order:markers stroke fill"
       d="m 72.859007,175.61951 v -9.56861 c 0,0 4.121832,0.0338 5.405681,-0.10135 1.283851,-0.13515 8.371249,-0.56375 15.108213,-8.92523 11.359839,-14.0991 19.444289,-16.72614 31.617149,-16.6504 v 9.57819 c -3.5216,-0.17111 -6.93024,0.0548 -10.25952,1.29084 -9.87846,3.89152 -13.41507,14.44 -24.128863,20.54536 -5.208011,2.77124 -8.919683,3.8312 -17.74266,3.8312 z"
       id="path2"
       sodipodi:nodetypes="ccssccssc" /><path
       id="rect2"
       style="fill:#2b2422;fill-opacity:1;stroke-width:6.04611;paint-order:markers stroke fill"
       d="m 130.49787,131.07959 0.0114,26.91619 c 0.005,10.66568 8.49402,17.62373 18.09709,17.62373 h 25.7793 v -9.46919 h -13.49995 -12.4225 c -8.40676,0 -8.6055,-7.97515 -8.6005,-8.15454 v -8.09977 h 34.52295 v -9.3648 h -34.52295 v -9.45162 z"
       sodipodi:nodetypes="csscccsccccccc" /><g
       id="rect3"><path
         id="path4"
         style="color:#000000;fill:#2b2422;fill-opacity:1;-inkscape-stroke:none;paint-order:markers stroke fill"
         d="m 197.6545,140.61906 c -9.39836,0 -17.25425,7.85743 -17.25425,17.25579 v 17.74413 l 9.29969,5.2e-4 v -17.74465 c 0,-4.40703 3.54804,-7.95507 7.95507,-7.95507 h 25.2026 v -9.29969 h 25.22327 c -0.007,-1e-5 -0.0134,-0.001 -0.0202,-0.001 z"
         sodipodi:nodetypes="ssccsscccss" /></g><path
       id="rect7"
       style="fill:#2b2422;fill-opacity:1;stroke:none;stroke-width:33.9211;stroke-dasharray:none;stroke-opacity:1;paint-order:markers stroke fill"
       d="m 243.69251,140.4971 c -9.72893,0 -17.56171,7.83227 -17.56171,17.5612 0,9.72893 7.83278,17.56121 17.56171,17.56121 h 17.43563 c 9.72893,0 17.5612,-7.83228 17.5612,-17.56121 v -17.5612 h -17.5612 -3.62458 z m 0.0289,9.41545 h 11.95173 5.42602 8.14576 v 8.14575 c 0,4.51278 -3.63298,8.14576 -8.14576,8.14576 h -17.37775 c -4.51277,0 -8.14575,-3.63298 -8.14575,-8.14576 0,-4.51276 3.63298,-8.14575 8.14575,-8.14575 z" /></g></svg>
